STARTFONT 2.1
COMMENT # Copyright (c) 1999, Thomas A. Fine
COMMENT # Copyright (c) 2015, rnndxb wxcy
COMMENT #
COMMENT # License to copy, modify, and distribute for both commercial and
COMMENT # non-commercial use is herby granted, provided this notice
COMMENT # is preserved.
COMMENT #
COMMENT # Email to my last name at head.cfa.harvard.edu
COMMENT # http://hea-www.harvard.edu/~fine/
COMMENT #
COMMENT # Produced with bdfedit, a tcl/tk font editing program
COMMENT # written by Thomas A. Fine
FONT -Misc-Atari800-Medium-R-Normal--8-80-75-75-C-40-ISO10646-1
SIZE 8 75 75
FONTBOUNDINGBOX 4 8 0 -1
STARTPROPERTIES 20
FONTNAME_REGISTRY ""
FOUNDRY "Misc"
FAMILY_NAME "Atari800"
WEIGHT_NAME "Medium"
SLANT "R"
SETWIDTH_NAME "Normal"
ADD_STYLE_NAME ""
PIXEL_SIZE 8
POINT_SIZE 80
RESOLUTION_X 75
RESOLUTION_Y 75
SPACING "C"
AVERAGE_WIDTH 40
CHARSET_REGISTRY "ISO10646"
CHARSET_ENCODING "1"
FONT_DESCENT 1
FONT_ASCENT 7
COPYRIGHT "Copyright 1999, 2015 Atari800 authors"
DEFAULT_CHAR 0
_GBDFED_INFO "Edited with gbdfed 1.6."
ENDPROPERTIES
CHARS 300
STARTCHAR <control>
ENCODING 0
SWIDTH 480 0
DWIDTH 4 0
BBX 4 8 0 -1
BITMAP
00
00
A0
00
A0
00
A0
00
ENDCHAR
STARTCHAR <control>
ENCODING 1
SWIDTH 480 0
DWIDTH 4 0
BBX 4 8 0 -1
BITMAP
00
20
70
F0
70
20
00
00
ENDCHAR
STARTCHAR <control>
ENCODING 2
SWIDTH 480 0
DWIDTH 4 0
BBX 4 8 0 -1
BITMAP
00
20
50
20
50
20
50
20
ENDCHAR
STARTCHAR <control>
ENCODING 28
SWIDTH 480 0
DWIDTH 4 0
BBX 4 8 0 -1
BITMAP
00
F0
50
50
50
50
00
00
ENDCHAR
STARTCHAR SPACE
ENCODING 32
SWIDTH 480 0
DWIDTH 4 0
BBX 4 8 0 -1
BITMAP
00
00
00
00
00
00
00
00
ENDCHAR
STARTCHAR EXCLAMATION MARK
ENCODING 33
SWIDTH 480 0
DWIDTH 4 0
BBX 4 8 0 -1
BITMAP
00
40
40
40
40
00
40
00
ENDCHAR
STARTCHAR QUOTATION MARK
ENCODING 34
SWIDTH 480 0
DWIDTH 4 0
BBX 4 8 0 -1
BITMAP
00
A0
A0
00
00
00
00
00
ENDCHAR
STARTCHAR NUMBER SIGN
ENCODING 35
SWIDTH 480 0
DWIDTH 4 0
BBX 4 8 0 -1
BITMAP
00
A0
E0
A0
A0
E0
A0
00
ENDCHAR
STARTCHAR DOLLAR SIGN
ENCODING 36
SWIDTH 480 0
DWIDTH 4 0
BBX 4 8 0 -1
BITMAP
40
40
A0
40
20
A0
40
40
ENDCHAR
STARTCHAR PERCENT SIGN
ENCODING 37
SWIDTH 480 0
DWIDTH 4 0
BBX 4 8 0 -1
BITMAP
00
A0
20
40
40
80
A0
00
ENDCHAR
STARTCHAR AMPERSAND
ENCODING 38
SWIDTH 480 0
DWIDTH 4 0
BBX 4 8 0 -1
BITMAP
40
A0
40
A0
A0
C0
60
00
ENDCHAR
STARTCHAR APOSTROPHE
ENCODING 39
SWIDTH 480 0
DWIDTH 4 0
BBX 4 8 0 -1
BITMAP
00
40
40
00
00
00
00
00
ENDCHAR
STARTCHAR LEFT PARENTHESIS
ENCODING 40
SWIDTH 480 0
DWIDTH 4 0
BBX 4 8 0 -1
BITMAP
00
20
40
40
40
40
20
00
ENDCHAR
STARTCHAR RIGHT PARENTHESIS
ENCODING 41
SWIDTH 480 0
DWIDTH 4 0
BBX 4 8 0 -1
BITMAP
00
80
40
40
40
40
80
00
ENDCHAR
STARTCHAR ASTERISK
ENCODING 42
SWIDTH 480 0
DWIDTH 4 0
BBX 4 8 0 -1
BITMAP
00
A0
40
E0
40
A0
00
00
ENDCHAR
STARTCHAR PLUS SIGN
ENCODING 43
SWIDTH 480 0
DWIDTH 4 0
BBX 4 8 0 -1
BITMAP
00
40
40
E0
40
40
00
00
ENDCHAR
STARTCHAR COMMA
ENCODING 44
SWIDTH 480 0
DWIDTH 4 0
BBX 4 8 0 -1
BITMAP
00
00
00
00
00
40
40
80
ENDCHAR
STARTCHAR HYPHEN-MINUS
ENCODING 45
SWIDTH 480 0
DWIDTH 4 0
BBX 4 8 0 -1
BITMAP
00
00
00
E0
00
00
00
00
ENDCHAR
STARTCHAR FULL STOP
ENCODING 46
SWIDTH 480 0
DWIDTH 4 0
BBX 4 8 0 -1
BITMAP
00
00
00
00
00
40
40
00
ENDCHAR
STARTCHAR SOLIDUS
ENCODING 47
SWIDTH 480 0
DWIDTH 4 0
BBX 4 8 0 -1
BITMAP
00
20
20
40
40
80
80
00
ENDCHAR
STARTCHAR DIGIT ZERO
ENCODING 48
SWIDTH 480 0
DWIDTH 4 0
BBX 4 8 0 -1
BITMAP
00
40
A0
E0
A0
A0
40
00
ENDCHAR
STARTCHAR DIGIT ONE
ENCODING 49
SWIDTH 480 0
DWIDTH 4 0
BBX 4 8 0 -1
BITMAP
00
40
C0
40
40
40
E0
00
ENDCHAR
STARTCHAR DIGIT TWO
ENCODING 50
SWIDTH 480 0
DWIDTH 4 0
BBX 4 8 0 -1
BITMAP
00
40
A0
20
40
80
E0
00
ENDCHAR
STARTCHAR DIGIT THREE
ENCODING 51
SWIDTH 480 0
DWIDTH 4 0
BBX 4 8 0 -1
BITMAP
00
E0
20
40
20
A0
40
00
ENDCHAR
STARTCHAR DIGIT FOUR
ENCODING 52
SWIDTH 480 0
DWIDTH 4 0
BBX 4 8 0 -1
BITMAP
00
20
60
A0
E0
20
20
00
ENDCHAR
STARTCHAR DIGIT FIVE
ENCODING 53
SWIDTH 480 0
DWIDTH 4 0
BBX 4 8 0 -1
BITMAP
00
E0
80
C0
20
A0
40
00
ENDCHAR
STARTCHAR DIGIT SIX
ENCODING 54
SWIDTH 480 0
DWIDTH 4 0
BBX 4 8 0 -1
BITMAP
00
60
80
C0
A0
A0
40
00
ENDCHAR
STARTCHAR DIGIT SEVEN
ENCODING 55
SWIDTH 480 0
DWIDTH 4 0
BBX 4 8 0 -1
BITMAP
00
E0
20
20
40
40
40
00
ENDCHAR
STARTCHAR DIGIT EIGHT
ENCODING 56
SWIDTH 480 0
DWIDTH 4 0
BBX 4 8 0 -1
BITMAP
00
40
A0
40
A0
A0
40
00
ENDCHAR
STARTCHAR DIGIT NINE
ENCODING 57
SWIDTH 480 0
DWIDTH 4 0
BBX 4 8 0 -1
BITMAP
00
40
A0
A0
60
20
C0
00
ENDCHAR
STARTCHAR COLON
ENCODING 58
SWIDTH 480 0
DWIDTH 4 0
BBX 4 8 0 -1
BITMAP
00
00
40
00
00
40
00
00
ENDCHAR
STARTCHAR SEMICOLON
ENCODING 59
SWIDTH 480 0
DWIDTH 4 0
BBX 4 8 0 -1
BITMAP
00
00
40
00
00
40
80
00
ENDCHAR
STARTCHAR LESS-THAN SIGN
ENCODING 60
SWIDTH 480 0
DWIDTH 4 0
BBX 4 8 0 -1
BITMAP
00
00
20
40
80
40
20
00
ENDCHAR
STARTCHAR EQUALS SIGN
ENCODING 61
SWIDTH 480 0
DWIDTH 4 0
BBX 4 8 0 -1
BITMAP
00
00
E0
00
E0
00
00
00
ENDCHAR
STARTCHAR GREATER-THAN SIGN
ENCODING 62
SWIDTH 480 0
DWIDTH 4 0
BBX 4 8 0 -1
BITMAP
00
00
80
40
20
40
80
00
ENDCHAR
STARTCHAR QUESTION MARK
ENCODING 63
SWIDTH 480 0
DWIDTH 4 0
BBX 4 8 0 -1
BITMAP
00
40
A0
20
40
00
40
00
ENDCHAR
STARTCHAR COMMERCIAL AT
ENCODING 64
SWIDTH 480 0
DWIDTH 4 0
BBX 4 8 0 -1
BITMAP
00
40
A0
A0
80
80
60
00
ENDCHAR
STARTCHAR LATIN CAPITAL LETTER A
ENCODING 65
SWIDTH 480 0
DWIDTH 4 0
BBX 4 8 0 -1
BITMAP
00
40
A0
A0
E0
A0
A0
00
ENDCHAR
STARTCHAR LATIN CAPITAL LETTER B
ENCODING 66
SWIDTH 480 0
DWIDTH 4 0
BBX 4 8 0 -1
BITMAP
00
C0
A0
C0
A0
A0
C0
00
ENDCHAR
STARTCHAR LATIN CAPITAL LETTER C
ENCODING 67
SWIDTH 480 0
DWIDTH 4 0
BBX 4 8 0 -1
BITMAP
00
40
A0
80
80
A0
40
00
ENDCHAR
STARTCHAR LATIN CAPITAL LETTER D
ENCODING 68
SWIDTH 480 0
DWIDTH 4 0
BBX 4 8 0 -1
BITMAP
00
C0
A0
A0
A0
A0
C0
00
ENDCHAR
STARTCHAR LATIN CAPITAL LETTER E
ENCODING 69
SWIDTH 480 0
DWIDTH 4 0
BBX 4 8 0 -1
BITMAP
00
E0
80
E0
80
80
E0
00
ENDCHAR
STARTCHAR LATIN CAPITAL LETTER F
ENCODING 70
SWIDTH 480 0
DWIDTH 4 0
BBX 4 8 0 -1
BITMAP
00
E0
80
E0
80
80
80
00
ENDCHAR
STARTCHAR LATIN CAPITAL LETTER G
ENCODING 71
SWIDTH 480 0
DWIDTH 4 0
BBX 4 8 0 -1
BITMAP
00
40
A0
80
A0
A0
40
00
ENDCHAR
STARTCHAR LATIN CAPITAL LETTER H
ENCODING 72
SWIDTH 480 0
DWIDTH 4 0
BBX 4 8 0 -1
BITMAP
00
A0
A0
E0
A0
A0
A0
00
ENDCHAR
STARTCHAR LATIN CAPITAL LETTER I
ENCODING 73
SWIDTH 480 0
DWIDTH 4 0
BBX 4 8 0 -1
BITMAP
00
E0
40
40
40
40
E0
00
ENDCHAR
STARTCHAR LATIN CAPITAL LETTER J
ENCODING 74
SWIDTH 480 0
DWIDTH 4 0
BBX 4 8 0 -1
BITMAP
00
20
20
20
20
A0
40
00
ENDCHAR
STARTCHAR LATIN CAPITAL LETTER K
ENCODING 75
SWIDTH 480 0
DWIDTH 4 0
BBX 4 8 0 -1
BITMAP
00
A0
A0
C0
A0
A0
A0
00
ENDCHAR
STARTCHAR LATIN CAPITAL LETTER L
ENCODING 76
SWIDTH 480 0
DWIDTH 4 0
BBX 4 8 0 -1
BITMAP
00
80
80
80
80
80
E0
00
ENDCHAR
STARTCHAR LATIN CAPITAL LETTER M
ENCODING 77
SWIDTH 480 0
DWIDTH 4 0
BBX 4 8 0 -1
BITMAP
00
A0
E0
A0
A0
A0
A0
00
ENDCHAR
STARTCHAR LATIN CAPITAL LETTER N
ENCODING 78
SWIDTH 480 0
DWIDTH 4 0
BBX 4 8 0 -1
BITMAP
00
20
A0
E0
E0
A0
80
00
ENDCHAR
STARTCHAR LATIN CAPITAL LETTER O
ENCODING 79
SWIDTH 480 0
DWIDTH 4 0
BBX 4 8 0 -1
BITMAP
00
40
A0
A0
A0
A0
40
00
ENDCHAR
STARTCHAR LATIN CAPITAL LETTER P
ENCODING 80
SWIDTH 480 0
DWIDTH 4 0
BBX 4 8 0 -1
BITMAP
00
C0
A0
A0
C0
80
80
00
ENDCHAR
STARTCHAR LATIN CAPITAL LETTER Q
ENCODING 81
SWIDTH 480 0
DWIDTH 4 0
BBX 4 8 0 -1
BITMAP
00
40
A0
A0
A0
C0
60
00
ENDCHAR
STARTCHAR LATIN CAPITAL LETTER R
ENCODING 82
SWIDTH 480 0
DWIDTH 4 0
BBX 4 8 0 -1
BITMAP
00
C0
A0
A0
C0
A0
A0
00
ENDCHAR
STARTCHAR LATIN CAPITAL LETTER S
ENCODING 83
SWIDTH 480 0
DWIDTH 4 0
BBX 4 8 0 -1
BITMAP
00
40
A0
40
20
A0
40
00
ENDCHAR
STARTCHAR LATIN CAPITAL LETTER T
ENCODING 84
SWIDTH 480 0
DWIDTH 4 0
BBX 4 8 0 -1
BITMAP
00
E0
40
40
40
40
40
00
ENDCHAR
STARTCHAR LATIN CAPITAL LETTER U
ENCODING 85
SWIDTH 480 0
DWIDTH 4 0
BBX 4 8 0 -1
BITMAP
00
A0
A0
A0
A0
A0
E0
00
ENDCHAR
STARTCHAR LATIN CAPITAL LETTER V
ENCODING 86
SWIDTH 480 0
DWIDTH 4 0
BBX 4 8 0 -1
BITMAP
00
A0
A0
A0
A0
A0
40
00
ENDCHAR
STARTCHAR LATIN CAPITAL LETTER W
ENCODING 87
SWIDTH 480 0
DWIDTH 4 0
BBX 4 8 0 -1
BITMAP
00
A0
A0
A0
A0
E0
A0
00
ENDCHAR
STARTCHAR LATIN CAPITAL LETTER X
ENCODING 88
SWIDTH 480 0
DWIDTH 4 0
BBX 4 8 0 -1
BITMAP
00
A0
A0
40
A0
A0
A0
00
ENDCHAR
STARTCHAR LATIN CAPITAL LETTER Y
ENCODING 89
SWIDTH 480 0
DWIDTH 4 0
BBX 4 8 0 -1
BITMAP
00
A0
A0
40
40
40
40
00
ENDCHAR
STARTCHAR LATIN CAPITAL LETTER Z
ENCODING 90
SWIDTH 480 0
DWIDTH 4 0
BBX 4 8 0 -1
BITMAP
00
E0
20
40
40
80
E0
00
ENDCHAR
STARTCHAR LEFT SQUARE BRACKET
ENCODING 91
SWIDTH 480 0
DWIDTH 4 0
BBX 4 8 0 -1
BITMAP
00
60
40
40
40
40
60
00
ENDCHAR
STARTCHAR REVERSE SOLIDUS
ENCODING 92
SWIDTH 480 0
DWIDTH 4 0
BBX 4 8 0 -1
BITMAP
00
80
80
40
40
20
20
00
ENDCHAR
STARTCHAR RIGHT SQUARE BRACKET
ENCODING 93
SWIDTH 480 0
DWIDTH 4 0
BBX 4 8 0 -1
BITMAP
00
C0
40
40
40
40
C0
00
ENDCHAR
STARTCHAR CIRCUMFLEX ACCENT
ENCODING 94
SWIDTH 480 0
DWIDTH 4 0
BBX 4 8 0 -1
BITMAP
00
40
A0
00
00
00
00
00
ENDCHAR
STARTCHAR LOW LINE
ENCODING 95
SWIDTH 480 0
DWIDTH 4 0
BBX 4 8 0 -1
BITMAP
00
00
00
00
00
00
00
F0
ENDCHAR
STARTCHAR GRAVE ACCENT
ENCODING 96
SWIDTH 480 0
DWIDTH 4 0
BBX 4 8 0 -1
BITMAP
00
80
40
00
00
00
00
00
ENDCHAR
STARTCHAR LATIN SMALL LETTER A
ENCODING 97
SWIDTH 480 0
DWIDTH 4 0
BBX 4 8 0 -1
BITMAP
00
00
C0
20
60
A0
60
00
ENDCHAR
STARTCHAR LATIN SMALL LETTER B
ENCODING 98
SWIDTH 480 0
DWIDTH 4 0
BBX 4 8 0 -1
BITMAP
00
80
80
C0
A0
A0
C0
00
ENDCHAR
STARTCHAR LATIN SMALL LETTER C
ENCODING 99
SWIDTH 480 0
DWIDTH 4 0
BBX 4 8 0 -1
BITMAP
00
00
60
80
80
80
60
00
ENDCHAR
STARTCHAR LATIN SMALL LETTER D
ENCODING 100
SWIDTH 480 0
DWIDTH 4 0
BBX 4 8 0 -1
BITMAP
00
20
20
60
A0
A0
60
00
ENDCHAR
STARTCHAR LATIN SMALL LETTER E
ENCODING 101
SWIDTH 480 0
DWIDTH 4 0
BBX 4 8 0 -1
BITMAP
00
00
40
A0
E0
80
60
00
ENDCHAR
STARTCHAR LATIN SMALL LETTER F
ENCODING 102
SWIDTH 480 0
DWIDTH 4 0
BBX 4 8 0 -1
BITMAP
00
20
40
E0
40
40
40
00
ENDCHAR
STARTCHAR LATIN SMALL LETTER G
ENCODING 103
SWIDTH 480 0
DWIDTH 4 0
BBX 4 8 0 -1
BITMAP
00
00
60
A0
A0
60
20
C0
ENDCHAR
STARTCHAR LATIN SMALL LETTER H
ENCODING 104
SWIDTH 480 0
DWIDTH 4 0
BBX 4 8 0 -1
BITMAP
00
80
80
C0
A0
A0
A0
00
ENDCHAR
STARTCHAR LATIN SMALL LETTER I
ENCODING 105
SWIDTH 480 0
DWIDTH 4 0
BBX 4 8 0 -1
BITMAP
00
40
00
C0
40
40
E0
00
ENDCHAR
STARTCHAR LATIN SMALL LETTER J
ENCODING 106
SWIDTH 480 0
DWIDTH 4 0
BBX 4 8 0 -1
BITMAP
00
20
00
60
20
20
20
C0
ENDCHAR
STARTCHAR LATIN SMALL LETTER K
ENCODING 107
SWIDTH 480 0
DWIDTH 4 0
BBX 4 8 0 -1
BITMAP
00
80
80
A0
C0
A0
A0
00
ENDCHAR
STARTCHAR LATIN SMALL LETTER L
ENCODING 108
SWIDTH 480 0
DWIDTH 4 0
BBX 4 8 0 -1
BITMAP
00
40
40
40
40
40
40
00
ENDCHAR
STARTCHAR LATIN SMALL LETTER M
ENCODING 109
SWIDTH 480 0
DWIDTH 4 0
BBX 4 8 0 -1
BITMAP
00
00
A0
E0
A0
A0
A0
00
ENDCHAR
STARTCHAR LATIN SMALL LETTER N
ENCODING 110
SWIDTH 480 0
DWIDTH 4 0
BBX 4 8 0 -1
BITMAP
00
00
C0
A0
A0
A0
A0
00
ENDCHAR
STARTCHAR LATIN SMALL LETTER O
ENCODING 111
SWIDTH 480 0
DWIDTH 4 0
BBX 4 8 0 -1
BITMAP
00
00
40
A0
A0
A0
40
00
ENDCHAR
STARTCHAR LATIN SMALL LETTER P
ENCODING 112
SWIDTH 480 0
DWIDTH 4 0
BBX 4 8 0 -1
BITMAP
00
00
C0
A0
A0
C0
80
80
ENDCHAR
STARTCHAR LATIN SMALL LETTER Q
ENCODING 113
SWIDTH 480 0
DWIDTH 4 0
BBX 4 8 0 -1
BITMAP
00
00
60
A0
A0
60
20
20
ENDCHAR
STARTCHAR LATIN SMALL LETTER R
ENCODING 114
SWIDTH 480 0
DWIDTH 4 0
BBX 4 8 0 -1
BITMAP
00
00
60
80
80
80
80
00
ENDCHAR
STARTCHAR LATIN SMALL LETTER S
ENCODING 115
SWIDTH 480 0
DWIDTH 4 0
BBX 4 8 0 -1
BITMAP
00
00
60
80
40
20
C0
00
ENDCHAR
STARTCHAR LATIN SMALL LETTER T
ENCODING 116
SWIDTH 480 0
DWIDTH 4 0
BBX 4 8 0 -1
BITMAP
00
40
40
E0
40
40
40
00
ENDCHAR
STARTCHAR LATIN SMALL LETTER U
ENCODING 117
SWIDTH 480 0
DWIDTH 4 0
BBX 4 8 0 -1
BITMAP
00
00
A0
A0
A0
A0
E0
00
ENDCHAR
STARTCHAR LATIN SMALL LETTER V
ENCODING 118
SWIDTH 480 0
DWIDTH 4 0
BBX 4 8 0 -1
BITMAP
00
00
A0
A0
A0
A0
40
00
ENDCHAR
STARTCHAR LATIN SMALL LETTER W
ENCODING 119
SWIDTH 480 0
DWIDTH 4 0
BBX 4 8 0 -1
BITMAP
00
00
A0
A0
A0
E0
A0
00
ENDCHAR
STARTCHAR LATIN SMALL LETTER X
ENCODING 120
SWIDTH 480 0
DWIDTH 4 0
BBX 4 8 0 -1
BITMAP
00
00
A0
A0
40
A0
A0
00
ENDCHAR
STARTCHAR LATIN SMALL LETTER Y
ENCODING 121
SWIDTH 480 0
DWIDTH 4 0
BBX 4 8 0 -1
BITMAP
00
00
A0
A0
A0
60
20
C0
ENDCHAR
STARTCHAR LATIN SMALL LETTER Z
ENCODING 122
SWIDTH 480 0
DWIDTH 4 0
BBX 4 8 0 -1
BITMAP
00
00
E0
20
40
80
E0
00
ENDCHAR
STARTCHAR LEFT CURLY BRACKET
ENCODING 123
SWIDTH 480 0
DWIDTH 4 0
BBX 4 8 0 -1
BITMAP
20
40
40
80
40
40
20
00
ENDCHAR
STARTCHAR VERTICAL LINE
ENCODING 124
SWIDTH 480 0
DWIDTH 4 0
BBX 4 8 0 -1
BITMAP
40
40
40
00
40
40
40
00
ENDCHAR
STARTCHAR RIGHT CURLY BRACKET
ENCODING 125
SWIDTH 480 0
DWIDTH 4 0
BBX 4 8 0 -1
BITMAP
80
40
40
20
40
40
80
00
ENDCHAR
STARTCHAR TILDE
ENCODING 126
SWIDTH 480 0
DWIDTH 4 0
BBX 4 8 0 -1
BITMAP
00
00
C0
60
00
00
00
00
ENDCHAR
STARTCHAR <control>
ENCODING 127
SWIDTH 480 0
DWIDTH 4 0
BBX 4 8 0 -1
BITMAP
00
00
00
00
00
00
00
00
ENDCHAR
STARTCHAR POUND SIGN
ENCODING 163
SWIDTH 480 0
DWIDTH 4 0
BBX 4 8 0 -1
BITMAP
30
40
E0
40
70
D0
40
00
ENDCHAR
STARTCHAR DEGREE SIGN
ENCODING 176
SWIDTH 480 0
DWIDTH 4 0
BBX 4 8 0 -1
BITMAP
00
E0
A0
A0
E0
00
00
00
ENDCHAR
STARTCHAR PLUS-MINUS SIGN
ENCODING 177
SWIDTH 480 0
DWIDTH 4 0
BBX 4 8 0 -1
BITMAP
00
20
70
20
00
70
00
00
ENDCHAR
STARTCHAR MIDDLE DOT
ENCODING 183
SWIDTH 480 0
DWIDTH 4 0
BBX 4 8 0 -1
BITMAP
00
00
00
40
00
00
00
00
ENDCHAR
STARTCHAR LEFT SINGLE QUOTATION MARK
ENCODING 8216
SWIDTH 480 0
DWIDTH 4 0
BBX 4 8 0 -1
BITMAP
00
20
40
40
00
00
00
00
ENDCHAR
STARTCHAR RIGHT SINGLE QUOTATION MARK
ENCODING 8217
SWIDTH 480 0
DWIDTH 4 0
BBX 4 8 0 -1
BITMAP
00
40
40
80
00
00
00
00
ENDCHAR
STARTCHAR NOT EQUAL TO
ENCODING 8800
SWIDTH 480 0
DWIDTH 4 0
BBX 4 8 0 -1
BITMAP
00
10
F0
20
F0
40
00
00
ENDCHAR
STARTCHAR LESS-THAN OR EQUAL TO
ENCODING 8804
SWIDTH 480 0
DWIDTH 4 0
BBX 4 8 0 -1
BITMAP
00
10
20
40
20
10
70
00
ENDCHAR
STARTCHAR GREATER-THAN OR EQUAL TO
ENCODING 8805
SWIDTH 480 0
DWIDTH 4 0
BBX 4 8 0 -1
BITMAP
00
40
20
10
20
40
70
00
ENDCHAR
STARTCHAR SYMBOL FOR HORIZONTAL TABULATION
ENCODING 9225
SWIDTH 480 0
DWIDTH 4 0
BBX 4 8 0 -1
BITMAP
50
50
70
50
50
30
10
10
ENDCHAR
STARTCHAR SYMBOL FOR LINE FEED
ENCODING 9226
SWIDTH 480 0
DWIDTH 4 0
BBX 4 8 0 -1
BITMAP
80
80
80
E0
30
20
30
20
ENDCHAR
STARTCHAR SYMBOL FOR VERTICAL TABULATION
ENCODING 9227
SWIDTH 480 0
DWIDTH 4 0
BBX 4 8 0 -1
BITMAP
A0
A0
A0
40
30
10
10
10
ENDCHAR
STARTCHAR SYMBOL FOR FORM FEED
ENCODING 9228
SWIDTH 480 0
DWIDTH 4 0
BBX 4 8 0 -1
BITMAP
E0
80
C0
B0
A0
30
20
20
ENDCHAR
STARTCHAR SYMBOL FOR CARRIAGE RETURN
ENCODING 9229
SWIDTH 480 0
DWIDTH 4 0
BBX 4 8 0 -1
BITMAP
60
80
60
00
30
20
30
20
ENDCHAR
STARTCHAR SYMBOL FOR NEWLINE
ENCODING 9252
SWIDTH 480 0
DWIDTH 4 0
BBX 4 8 0 -1
BITMAP
90
D0
B0
90
20
20
20
30
ENDCHAR
STARTCHAR BOX DRAWINGS LIGHT HORIZONTAL
ENCODING 9472
SWIDTH 480 0
DWIDTH 4 0
BBX 4 8 0 -1
BITMAP
00
00
00
00
F0
00
00
00
ENDCHAR
STARTCHAR BOX DRAWINGS HEAVY HORIZONTAL
ENCODING 9473
SWIDTH 480 0
DWIDTH 4 0
BBX 4 8 0 -1
BITMAP
00
00
00
F0
F0
00
00
00
ENDCHAR
STARTCHAR BOX DRAWINGS LIGHT VERTICAL
ENCODING 9474
SWIDTH 480 0
DWIDTH 4 0
BBX 4 8 0 -1
BITMAP
40
40
40
40
40
40
40
40
ENDCHAR
STARTCHAR BOX DRAWINGS HEAVY VERTICAL
ENCODING 9475
SWIDTH 480 0
DWIDTH 4 0
BBX 4 8 0 -1
BITMAP
60
60
60
60
60
60
60
60
ENDCHAR
STARTCHAR BOX DRAWINGS LIGHT TRIPLE DASH HORIZONTAL
ENCODING 9476
SWIDTH 480 0
DWIDTH 4 0
BBX 4 8 0 -1
BITMAP
00
00
00
00
A0
00
00
00
ENDCHAR
STARTCHAR BOX DRAWINGS HEAVY TRIPLE DASH HORIZONTAL
ENCODING 9477
SWIDTH 480 0
DWIDTH 4 0
BBX 4 8 0 -1
BITMAP
00
00
00
A0
A0
00
00
00
ENDCHAR
STARTCHAR BOX DRAWINGS LIGHT TRIPLE DASH VERTICAL
ENCODING 9478
SWIDTH 480 0
DWIDTH 4 0
BBX 4 8 0 -1
BITMAP
40
40
00
40
40
00
40
40
ENDCHAR
STARTCHAR BOX DRAWINGS HEAVY TRIPLE DASH VERTICAL
ENCODING 9479
SWIDTH 480 0
DWIDTH 4 0
BBX 4 8 0 -1
BITMAP
60
60
00
60
60
00
60
60
ENDCHAR
STARTCHAR BOX DRAWINGS LIGHT QUADRUPLE DASH HORIZONTAL
ENCODING 9480
SWIDTH 480 0
DWIDTH 4 0
BBX 4 8 0 -1
BITMAP
00
00
00
00
A0
00
00
00
ENDCHAR
STARTCHAR BOX DRAWINGS HEAVY QUADRUPLE DASH HORIZONTAL
ENCODING 9481
SWIDTH 480 0
DWIDTH 4 0
BBX 4 8 0 -1
BITMAP
00
00
00
A0
A0
00
00
00
ENDCHAR
STARTCHAR BOX DRAWINGS LIGHT QUADRUPLE DASH VERTICAL
ENCODING 9482
SWIDTH 480 0
DWIDTH 4 0
BBX 4 8 0 -1
BITMAP
40
40
00
40
40
00
40
40
ENDCHAR
STARTCHAR BOX DRAWINGS HEAVY QUADRUPLE DASH VERTICAL
ENCODING 9483
SWIDTH 480 0
DWIDTH 4 0
BBX 4 8 0 -1
BITMAP
60
60
00
60
60
00
60
60
ENDCHAR
STARTCHAR BOX DRAWINGS LIGHT DOWN AND RIGHT
ENCODING 9484
SWIDTH 480 0
DWIDTH 4 0
BBX 4 8 0 -1
BITMAP
00
00
00
00
70
40
40
40
ENDCHAR
STARTCHAR BOX DRAWINGS DOWN LIGHT AND RIGHT HEAVY
ENCODING 9485
SWIDTH 480 0
DWIDTH 4 0
BBX 4 8 0 -1
BITMAP
00
00
00
70
70
40
40
40
ENDCHAR
STARTCHAR BOX DRAWINGS DOWN HEAVY AND RIGHT LIGHT
ENCODING 9486
SWIDTH 480 0
DWIDTH 4 0
BBX 4 8 0 -1
BITMAP
00
00
00
00
70
60
60
60
ENDCHAR
STARTCHAR BOX DRAWINGS HEAVY DOWN AND RIGHT
ENCODING 9487
SWIDTH 480 0
DWIDTH 4 0
BBX 4 8 0 -1
BITMAP
00
00
00
70
70
60
60
60
ENDCHAR
STARTCHAR BOX DRAWINGS LIGHT DOWN AND LEFT
ENCODING 9488
SWIDTH 480 0
DWIDTH 4 0
BBX 4 8 0 -1
BITMAP
00
00
00
00
C0
40
40
40
ENDCHAR
STARTCHAR BOX DRAWINGS DOWN LIGHT AND LEFT HEAVY
ENCODING 9489
SWIDTH 480 0
DWIDTH 4 0
BBX 4 8 0 -1
BITMAP
00
00
00
C0
C0
40
40
40
ENDCHAR
STARTCHAR BOX DRAWINGS DOWN HEAVY AND LEFT LIGHT
ENCODING 9490
SWIDTH 480 0
DWIDTH 4 0
BBX 4 8 0 -1
BITMAP
00
00
00
00
E0
60
60
60
ENDCHAR
STARTCHAR BOX DRAWINGS HEAVY DOWN AND LEFT
ENCODING 9491
SWIDTH 480 0
DWIDTH 4 0
BBX 4 8 0 -1
BITMAP
00
00
00
E0
E0
60
60
60
ENDCHAR
STARTCHAR BOX DRAWINGS LIGHT UP AND RIGHT
ENCODING 9492
SWIDTH 480 0
DWIDTH 4 0
BBX 4 8 0 -1
BITMAP
40
40
40
40
70
00
00
00
ENDCHAR
STARTCHAR BOX DRAWINGS UP LIGHT AND RIGHT HEAVY
ENCODING 9493
SWIDTH 480 0
DWIDTH 4 0
BBX 4 8 0 -1
BITMAP
40
40
40
70
70
00
00
00
ENDCHAR
STARTCHAR BOX DRAWINGS UP HEAVY AND RIGHT LIGHT
ENCODING 9494
SWIDTH 480 0
DWIDTH 4 0
BBX 4 8 0 -1
BITMAP
60
60
60
60
70
00
00
00
ENDCHAR
STARTCHAR BOX DRAWINGS HEAVY UP AND RIGHT
ENCODING 9495
SWIDTH 480 0
DWIDTH 4 0
BBX 4 8 0 -1
BITMAP
60
60
60
70
70
00
00
00
ENDCHAR
STARTCHAR BOX DRAWINGS LIGHT UP AND LEFT
ENCODING 9496
SWIDTH 480 0
DWIDTH 4 0
BBX 4 8 0 -1
BITMAP
40
40
40
40
C0
00
00
00
ENDCHAR
STARTCHAR BOX DRAWINGS UP LIGHT AND LEFT HEAVY
ENCODING 9497
SWIDTH 480 0
DWIDTH 4 0
BBX 4 8 0 -1
BITMAP
40
40
40
C0
C0
00
00
00
ENDCHAR
STARTCHAR BOX DRAWINGS UP HEAVY AND LEFT LIGHT
ENCODING 9498
SWIDTH 480 0
DWIDTH 4 0
BBX 4 8 0 -1
BITMAP
60
60
60
60
E0
00
00
00
ENDCHAR
STARTCHAR BOX DRAWINGS HEAVY UP AND LEFT
ENCODING 9499
SWIDTH 480 0
DWIDTH 4 0
BBX 4 8 0 -1
BITMAP
60
60
60
E0
E0
00
00
00
ENDCHAR
STARTCHAR BOX DRAWINGS LIGHT VERTICAL AND RIGHT
ENCODING 9500
SWIDTH 480 0
DWIDTH 4 0
BBX 4 8 0 -1
BITMAP
40
40
40
40
70
40
40
40
ENDCHAR
STARTCHAR BOX DRAWINGS VERTICAL LIGHT AND RIGHT HEAVY
ENCODING 9501
SWIDTH 480 0
DWIDTH 4 0
BBX 4 8 0 -1
BITMAP
40
40
40
70
70
40
40
40
ENDCHAR
STARTCHAR BOX DRAWINGS UP HEAVY AND RIGHT DOWN LIGHT
ENCODING 9502
SWIDTH 480 0
DWIDTH 4 0
BBX 4 8 0 -1
BITMAP
60
60
60
60
70
40
40
40
ENDCHAR
STARTCHAR BOX DRAWINGS DOWN HEAVY AND RIGHT UP LIGHT
ENCODING 9503
SWIDTH 480 0
DWIDTH 4 0
BBX 4 8 0 -1
BITMAP
40
40
40
40
70
60
60
60
ENDCHAR
STARTCHAR BOX DRAWINGS VERTICAL HEAVY AND RIGHT LIGHT
ENCODING 9504
SWIDTH 480 0
DWIDTH 4 0
BBX 4 8 0 -1
BITMAP
60
60
60
60
70
60
60
60
ENDCHAR
STARTCHAR BOX DRAWINGS DOWN LIGHT AND RIGHT UP HEAVY
ENCODING 9505
SWIDTH 480 0
DWIDTH 4 0
BBX 4 8 0 -1
BITMAP
60
60
60
70
70
40
40
40
ENDCHAR
STARTCHAR BOX DRAWINGS UP LIGHT AND RIGHT DOWN HEAVY
ENCODING 9506
SWIDTH 480 0
DWIDTH 4 0
BBX 4 8 0 -1
BITMAP
40
40
40
70
70
60
60
60
ENDCHAR
STARTCHAR BOX DRAWINGS HEAVY VERTICAL AND RIGHT
ENCODING 9507
SWIDTH 480 0
DWIDTH 4 0
BBX 4 8 0 -1
BITMAP
60
60
60
70
70
60
60
60
ENDCHAR
STARTCHAR BOX DRAWINGS LIGHT VERTICAL AND LEFT
ENCODING 9508
SWIDTH 480 0
DWIDTH 4 0
BBX 4 8 0 -1
BITMAP
40
40
40
40
C0
40
40
40
ENDCHAR
STARTCHAR BOX DRAWINGS VERTICAL LIGHT AND LEFT HEAVY
ENCODING 9509
SWIDTH 480 0
DWIDTH 4 0
BBX 4 8 0 -1
BITMAP
40
40
40
C0
C0
40
40
40
ENDCHAR
STARTCHAR BOX DRAWINGS UP HEAVY AND LEFT DOWN LIGHT
ENCODING 9510
SWIDTH 480 0
DWIDTH 4 0
BBX 4 8 0 -1
BITMAP
60
60
60
60
E0
40
40
40
ENDCHAR
STARTCHAR BOX DRAWINGS DOWN HEAVY AND LEFT UP LIGHT
ENCODING 9511
SWIDTH 480 0
DWIDTH 4 0
BBX 4 8 0 -1
BITMAP
40
40
40
40
E0
60
60
60
ENDCHAR
STARTCHAR BOX DRAWINGS VERTICAL HEAVY AND LEFT LIGHT
ENCODING 9512
SWIDTH 480 0
DWIDTH 4 0
BBX 4 8 0 -1
BITMAP
60
60
60
60
E0
60
60
60
ENDCHAR
STARTCHAR BOX DRAWINGS DOWN LIGHT AND LEFT UP HEAVY
ENCODING 9513
SWIDTH 480 0
DWIDTH 4 0
BBX 4 8 0 -1
BITMAP
60
60
60
E0
E0
40
40
40
ENDCHAR
STARTCHAR BOX DRAWINGS UP LIGHT AND LEFT DOWN HEAVY
ENCODING 9514
SWIDTH 480 0
DWIDTH 4 0
BBX 4 8 0 -1
BITMAP
40
40
40
E0
E0
60
60
60
ENDCHAR
STARTCHAR BOX DRAWINGS HEAVY VERTICAL AND LEFT
ENCODING 9515
SWIDTH 480 0
DWIDTH 4 0
BBX 4 8 0 -1
BITMAP
60
60
60
E0
E0
60
60
60
ENDCHAR
STARTCHAR BOX DRAWINGS LIGHT DOWN AND HORIZONTAL
ENCODING 9516
SWIDTH 480 0
DWIDTH 4 0
BBX 4 8 0 -1
BITMAP
00
00
00
00
F0
40
40
40
ENDCHAR
STARTCHAR BOX DRAWINGS LEFT HEAVY AND RIGHT DOWN LIGHT
ENCODING 9517
SWIDTH 480 0
DWIDTH 4 0
BBX 4 8 0 -1
BITMAP
00
00
00
E0
F0
20
20
20
ENDCHAR
STARTCHAR BOX DRAWINGS RIGHT HEAVY AND LEFT DOWN LIGHT
ENCODING 9518
SWIDTH 480 0
DWIDTH 4 0
BBX 4 8 0 -1
BITMAP
00
00
00
70
F0
40
40
40
ENDCHAR
STARTCHAR BOX DRAWINGS DOWN LIGHT AND HORIZONTAL HEAVY
ENCODING 9519
SWIDTH 480 0
DWIDTH 4 0
BBX 4 8 0 -1
BITMAP
00
00
00
F0
F0
40
40
40
ENDCHAR
STARTCHAR BOX DRAWINGS DOWN HEAVY AND HORIZONTAL LIGHT
ENCODING 9520
SWIDTH 480 0
DWIDTH 4 0
BBX 4 8 0 -1
BITMAP
00
00
00
00
F0
60
60
60
ENDCHAR
STARTCHAR BOX DRAWINGS RIGHT LIGHT AND LEFT DOWN HEAVY
ENCODING 9521
SWIDTH 480 0
DWIDTH 4 0
BBX 4 8 0 -1
BITMAP
00
00
00
E0
F0
60
60
60
ENDCHAR
STARTCHAR BOX DRAWINGS LEFT LIGHT AND RIGHT DOWN HEAVY
ENCODING 9522
SWIDTH 480 0
DWIDTH 4 0
BBX 4 8 0 -1
BITMAP
00
00
00
70
F0
60
60
60
ENDCHAR
STARTCHAR BOX DRAWINGS HEAVY DOWN AND HORIZONTAL
ENCODING 9523
SWIDTH 480 0
DWIDTH 4 0
BBX 4 8 0 -1
BITMAP
00
00
00
F0
F0
60
60
60
ENDCHAR
STARTCHAR BOX DRAWINGS LIGHT UP AND HORIZONTAL
ENCODING 9524
SWIDTH 480 0
DWIDTH 4 0
BBX 4 8 0 -1
BITMAP
40
40
40
40
F0
00
00
00
ENDCHAR
STARTCHAR BOX DRAWINGS LEFT HEAVY AND RIGHT UP LIGHT
ENCODING 9525
SWIDTH 480 0
DWIDTH 4 0
BBX 4 8 0 -1
BITMAP
40
40
40
C0
F0
00
00
00
ENDCHAR
STARTCHAR BOX DRAWINGS RIGHT HEAVY AND LEFT UP LIGHT
ENCODING 9526
SWIDTH 480 0
DWIDTH 4 0
BBX 4 8 0 -1
BITMAP
40
40
40
70
F0
00
00
00
ENDCHAR
STARTCHAR BOX DRAWINGS UP LIGHT AND HORIZONTAL HEAVY
ENCODING 9527
SWIDTH 480 0
DWIDTH 4 0
BBX 4 8 0 -1
BITMAP
40
40
40
F0
F0
00
00
00
ENDCHAR
STARTCHAR BOX DRAWINGS UP HEAVY AND HORIZONTAL LIGHT
ENCODING 9528
SWIDTH 480 0
DWIDTH 4 0
BBX 4 8 0 -1
BITMAP
60
60
60
60
F0
00
00
00
ENDCHAR
STARTCHAR BOX DRAWINGS RIGHT LIGHT AND LEFT UP HEAVY
ENCODING 9529
SWIDTH 480 0
DWIDTH 4 0
BBX 4 8 0 -1
BITMAP
60
60
60
E0
F0
00
00
00
ENDCHAR
STARTCHAR BOX DRAWINGS LEFT LIGHT AND RIGHT UP HEAVY
ENCODING 9530
SWIDTH 480 0
DWIDTH 4 0
BBX 4 8 0 -1
BITMAP
60
60
60
70
F0
00
00
00
ENDCHAR
STARTCHAR BOX DRAWINGS HEAVY UP AND HORIZONTAL
ENCODING 9531
SWIDTH 480 0
DWIDTH 4 0
BBX 4 8 0 -1
BITMAP
60
60
60
F0
F0
00
00
00
ENDCHAR
STARTCHAR BOX DRAWINGS LIGHT VERTICAL AND HORIZONTAL
ENCODING 9532
SWIDTH 480 0
DWIDTH 4 0
BBX 4 8 0 -1
BITMAP
40
40
40
40
F0
40
40
40
ENDCHAR
STARTCHAR BOX DRAWINGS LEFT HEAVY AND RIGHT VERTICAL LIGHT
ENCODING 9533
SWIDTH 480 0
DWIDTH 4 0
BBX 4 8 0 -1
BITMAP
40
40
40
C0
F0
40
40
40
ENDCHAR
STARTCHAR BOX DRAWINGS RIGHT HEAVY AND LEFT VERTICAL LIGHT
ENCODING 9534
SWIDTH 480 0
DWIDTH 4 0
BBX 4 8 0 -1
BITMAP
40
40
40
70
F0
40
40
40
ENDCHAR
STARTCHAR BOX DRAWINGS VERTICAL LIGHT AND HORIZONTAL HEAVY
ENCODING 9535
SWIDTH 480 0
DWIDTH 4 0
BBX 4 8 0 -1
BITMAP
40
40
40
F0
F0
40
40
40
ENDCHAR
STARTCHAR BOX DRAWINGS UP HEAVY AND DOWN HORIZONTAL LIGHT
ENCODING 9536
SWIDTH 480 0
DWIDTH 4 0
BBX 4 8 0 -1
BITMAP
60
60
60
60
F0
40
40
40
ENDCHAR
STARTCHAR BOX DRAWINGS DOWN HEAVY AND UP HORIZONTAL LIGHT
ENCODING 9537
SWIDTH 480 0
DWIDTH 4 0
BBX 4 8 0 -1
BITMAP
40
40
40
40
F0
60
60
60
ENDCHAR
STARTCHAR BOX DRAWINGS VERTICAL HEAVY AND HORIZONTAL LIGHT
ENCODING 9538
SWIDTH 480 0
DWIDTH 4 0
BBX 4 8 0 -1
BITMAP
60
60
60
60
F0
60
60
60
ENDCHAR
STARTCHAR BOX DRAWINGS LEFT UP HEAVY AND RIGHT DOWN LIGHT
ENCODING 9539
SWIDTH 480 0
DWIDTH 4 0
BBX 4 8 0 -1
BITMAP
60
60
60
E0
F0
40
40
40
ENDCHAR
STARTCHAR BOX DRAWINGS RIGHT UP HEAVY AND LEFT DOWN LIGHT
ENCODING 9540
SWIDTH 480 0
DWIDTH 4 0
BBX 4 8 0 -1
BITMAP
60
60
60
70
F0
40
40
40
ENDCHAR
STARTCHAR BOX DRAWINGS LEFT DOWN HEAVY AND RIGHT UP LIGHT
ENCODING 9541
SWIDTH 480 0
DWIDTH 4 0
BBX 4 8 0 -1
BITMAP
40
40
40
E0
F0
60
60
60
ENDCHAR
STARTCHAR BOX DRAWINGS RIGHT DOWN HEAVY AND LEFT UP LIGHT
ENCODING 9542
SWIDTH 480 0
DWIDTH 4 0
BBX 4 8 0 -1
BITMAP
40
40
40
70
F0
60
60
60
ENDCHAR
STARTCHAR BOX DRAWINGS DOWN LIGHT AND UP HORIZONTAL HEAVY
ENCODING 9543
SWIDTH 480 0
DWIDTH 4 0
BBX 4 8 0 -1
BITMAP
60
60
60
F0
F0
40
40
40
ENDCHAR
STARTCHAR BOX DRAWINGS UP LIGHT AND DOWN HORIZONTAL HEAVY
ENCODING 9544
SWIDTH 480 0
DWIDTH 4 0
BBX 4 8 0 -1
BITMAP
40
40
40
F0
F0
60
60
60
ENDCHAR
STARTCHAR BOX DRAWINGS RIGHT LIGHT AND LEFT VERTICAL HEAVY
ENCODING 9545
SWIDTH 480 0
DWIDTH 4 0
BBX 4 8 0 -1
BITMAP
60
60
60
E0
F0
60
60
60
ENDCHAR
STARTCHAR BOX DRAWINGS LEFT LIGHT AND RIGHT VERTICAL HEAVY
ENCODING 9546
SWIDTH 480 0
DWIDTH 4 0
BBX 4 8 0 -1
BITMAP
60
60
60
70
F0
60
60
60
ENDCHAR
STARTCHAR BOX DRAWINGS HEAVY VERTICAL AND HORIZONTAL
ENCODING 9547
SWIDTH 480 0
DWIDTH 4 0
BBX 4 8 0 -1
BITMAP
60
60
60
F0
F0
60
60
60
ENDCHAR
STARTCHAR BOX DRAWINGS LIGHT DOUBLE DASH HORIZONTAL
ENCODING 9548
SWIDTH 480 0
DWIDTH 4 0
BBX 4 8 0 -1
BITMAP
00
00
00
00
D0
00
00
00
ENDCHAR
STARTCHAR BOX DRAWINGS HEAVY DOUBLE DASH HORIZONTAL
ENCODING 9549
SWIDTH 480 0
DWIDTH 4 0
BBX 4 8 0 -1
BITMAP
00
00
00
D0
D0
00
00
00
ENDCHAR
STARTCHAR BOX DRAWINGS LIGHT DOUBLE DASH VERTICAL
ENCODING 9550
SWIDTH 480 0
DWIDTH 4 0
BBX 4 8 0 -1
BITMAP
40
40
40
00
40
40
40
40
ENDCHAR
STARTCHAR BOX DRAWINGS HEAVY DOUBLE DASH VERTICAL
ENCODING 9551
SWIDTH 480 0
DWIDTH 4 0
BBX 4 8 0 -1
BITMAP
60
60
60
00
60
60
60
60
ENDCHAR
STARTCHAR BOX DRAWINGS DOUBLE HORIZONTAL
ENCODING 9552
SWIDTH 480 0
DWIDTH 4 0
BBX 4 8 0 -1
BITMAP
00
00
F0
00
F0
00
00
00
ENDCHAR
STARTCHAR BOX DRAWINGS DOUBLE VERTICAL
ENCODING 9553
SWIDTH 480 0
DWIDTH 4 0
BBX 4 8 0 -1
BITMAP
50
50
50
50
50
50
50
50
ENDCHAR
STARTCHAR BOX DRAWINGS DOWN SINGLE AND RIGHT DOUBLE
ENCODING 9554
SWIDTH 480 0
DWIDTH 4 0
BBX 4 8 0 -1
BITMAP
00
00
70
40
70
40
40
40
ENDCHAR
STARTCHAR BOX DRAWINGS DOWN DOUBLE AND RIGHT SINGLE
ENCODING 9555
SWIDTH 480 0
DWIDTH 4 0
BBX 4 8 0 -1
BITMAP
00
00
00
00
70
50
50
50
ENDCHAR
STARTCHAR BOX DRAWINGS DOUBLE DOWN AND RIGHT
ENCODING 9556
SWIDTH 480 0
DWIDTH 4 0
BBX 4 8 0 -1
BITMAP
00
00
70
40
50
50
50
50
ENDCHAR
STARTCHAR BOX DRAWINGS DOWN SINGLE AND LEFT DOUBLE
ENCODING 9557
SWIDTH 480 0
DWIDTH 4 0
BBX 4 8 0 -1
BITMAP
00
00
C0
40
C0
40
40
40
ENDCHAR
STARTCHAR BOX DRAWINGS DOWN DOUBLE AND LEFT SINGLE
ENCODING 9558
SWIDTH 480 0
DWIDTH 4 0
BBX 4 8 0 -1
BITMAP
00
00
00
00
F0
50
50
50
ENDCHAR
STARTCHAR BOX DRAWINGS DOUBLE DOWN AND LEFT
ENCODING 9559
SWIDTH 480 0
DWIDTH 4 0
BBX 4 8 0 -1
BITMAP
00
00
F0
10
D0
50
50
50
ENDCHAR
STARTCHAR BOX DRAWINGS UP SINGLE AND RIGHT DOUBLE
ENCODING 9560
SWIDTH 480 0
DWIDTH 4 0
BBX 4 8 0 -1
BITMAP
40
40
70
40
70
00
00
00
ENDCHAR
STARTCHAR BOX DRAWINGS UP DOUBLE AND RIGHT SINGLE
ENCODING 9561
SWIDTH 480 0
DWIDTH 4 0
BBX 4 8 0 -1
BITMAP
50
50
50
50
70
00
00
00
ENDCHAR
STARTCHAR BOX DRAWINGS DOUBLE UP AND RIGHT
ENCODING 9562
SWIDTH 480 0
DWIDTH 4 0
BBX 4 8 0 -1
BITMAP
50
50
50
40
70
00
00
00
ENDCHAR
STARTCHAR BOX DRAWINGS UP SINGLE AND LEFT DOUBLE
ENCODING 9563
SWIDTH 480 0
DWIDTH 4 0
BBX 4 8 0 -1
BITMAP
40
40
C0
40
C0
00
00
00
ENDCHAR
STARTCHAR BOX DRAWINGS UP DOUBLE AND LEFT SINGLE
ENCODING 9564
SWIDTH 480 0
DWIDTH 4 0
BBX 4 8 0 -1
BITMAP
50
50
50
50
F0
00
00
00
ENDCHAR
STARTCHAR BOX DRAWINGS DOUBLE UP AND LEFT
ENCODING 9565
SWIDTH 480 0
DWIDTH 4 0
BBX 4 8 0 -1
BITMAP
50
50
D0
10
F0
00
00
00
ENDCHAR
STARTCHAR BOX DRAWINGS VERTICAL SINGLE AND RIGHT DOUBLE
ENCODING 9566
SWIDTH 480 0
DWIDTH 4 0
BBX 4 8 0 -1
BITMAP
40
40
70
40
70
40
40
40
ENDCHAR
STARTCHAR BOX DRAWINGS VERTICAL DOUBLE AND RIGHT SINGLE
ENCODING 9567
SWIDTH 480 0
DWIDTH 4 0
BBX 4 8 0 -1
BITMAP
50
50
50
50
50
50
50
50
ENDCHAR
STARTCHAR BOX DRAWINGS DOUBLE VERTICAL AND RIGHT
ENCODING 9568
SWIDTH 480 0
DWIDTH 4 0
BBX 4 8 0 -1
BITMAP
50
50
50
40
50
50
50
50
ENDCHAR
STARTCHAR BOX DRAWINGS VERTICAL SINGLE AND LEFT DOUBLE
ENCODING 9569
SWIDTH 480 0
DWIDTH 4 0
BBX 4 8 0 -1
BITMAP
40
40
C0
40
C0
40
40
40
ENDCHAR
STARTCHAR BOX DRAWINGS VERTICAL DOUBLE AND LEFT SINGLE
ENCODING 9570
SWIDTH 480 0
DWIDTH 4 0
BBX 4 8 0 -1
BITMAP
50
50
50
50
D0
50
50
50
ENDCHAR
STARTCHAR BOX DRAWINGS DOUBLE VERTICAL AND LEFT
ENCODING 9571
SWIDTH 480 0
DWIDTH 4 0
BBX 4 8 0 -1
BITMAP
50
50
D0
10
D0
50
50
50
ENDCHAR
STARTCHAR BOX DRAWINGS DOWN SINGLE AND HORIZONTAL DOUBLE
ENCODING 9572
SWIDTH 480 0
DWIDTH 4 0
BBX 4 8 0 -1
BITMAP
00
00
F0
00
F0
40
40
40
ENDCHAR
STARTCHAR BOX DRAWINGS DOWN DOUBLE AND HORIZONTAL SINGLE
ENCODING 9573
SWIDTH 480 0
DWIDTH 4 0
BBX 4 8 0 -1
BITMAP
00
00
00
00
F0
50
50
50
ENDCHAR
STARTCHAR BOX DRAWINGS DOUBLE DOWN AND HORIZONTAL
ENCODING 9574
SWIDTH 480 0
DWIDTH 4 0
BBX 4 8 0 -1
BITMAP
00
00
F0
00
D0
50
50
50
ENDCHAR
STARTCHAR BOX DRAWINGS UP SINGLE AND HORIZONTAL DOUBLE
ENCODING 9575
SWIDTH 480 0
DWIDTH 4 0
BBX 4 8 0 -1
BITMAP
40
40
F0
00
F0
00
00
00
ENDCHAR
STARTCHAR BOX DRAWINGS UP DOUBLE AND HORIZONTAL SINGLE
ENCODING 9576
SWIDTH 480 0
DWIDTH 4 0
BBX 4 8 0 -1
BITMAP
50
50
50
50
F0
00
00
00
ENDCHAR
STARTCHAR BOX DRAWINGS DOUBLE UP AND HORIZONTAL
ENCODING 9577
SWIDTH 480 0
DWIDTH 4 0
BBX 4 8 0 -1
BITMAP
50
50
D0
00
F0
00
00
00
ENDCHAR
STARTCHAR BOX DRAWINGS VERTICAL SINGLE AND HORIZONTAL DOUBLE
ENCODING 9578
SWIDTH 480 0
DWIDTH 4 0
BBX 4 8 0 -1
BITMAP
40
40
F0
40
F0
40
40
40
ENDCHAR
STARTCHAR BOX DRAWINGS VERTICAL DOUBLE AND HORIZONTAL SINGLE
ENCODING 9579
SWIDTH 480 0
DWIDTH 4 0
BBX 4 8 0 -1
BITMAP
50
50
50
50
F0
50
50
50
ENDCHAR
STARTCHAR BOX DRAWINGS DOUBLE VERTICAL AND HORIZONTAL
ENCODING 9580
SWIDTH 480 0
DWIDTH 4 0
BBX 4 8 0 -1
BITMAP
50
50
D0
00
D0
50
50
50
ENDCHAR
STARTCHAR BOX DRAWINGS LIGHT ARC DOWN AND RIGHT
ENCODING 9581
SWIDTH 480 0
DWIDTH 4 0
BBX 4 8 0 -1
BITMAP
00
00
00
00
30
60
40
40
ENDCHAR
STARTCHAR BOX DRAWINGS LIGHT ARC DOWN AND LEFT
ENCODING 9582
SWIDTH 480 0
DWIDTH 4 0
BBX 4 8 0 -1
BITMAP
00
00
00
00
80
C0
40
40
ENDCHAR
STARTCHAR BOX DRAWINGS LIGHT ARC UP AND LEFT
ENCODING 9583
SWIDTH 480 0
DWIDTH 4 0
BBX 4 8 0 -1
BITMAP
40
40
40
C0
80
00
00
00
ENDCHAR
STARTCHAR BOX DRAWINGS LIGHT ARC UP AND RIGHT
ENCODING 9584
SWIDTH 480 0
DWIDTH 4 0
BBX 4 8 0 -1
BITMAP
40
40
40
60
30
00
00
00
ENDCHAR
STARTCHAR BOX DRAWINGS LIGHT DIAGONAL UPPER RIGHT TO LOWER LEFT
ENCODING 9585
SWIDTH 480 0
DWIDTH 4 0
BBX 4 8 0 -1
BITMAP
10
10
20
20
40
40
80
80
ENDCHAR
STARTCHAR BOX DRAWINGS LIGHT DIAGONAL UPPER LEFT TO LOWER RIGHT
ENCODING 9586
SWIDTH 480 0
DWIDTH 4 0
BBX 4 8 0 -1
BITMAP
80
80
40
40
20
20
10
10
ENDCHAR
STARTCHAR BOX DRAWINGS LIGHT DIAGONAL CROSS
ENCODING 9587
SWIDTH 480 0
DWIDTH 4 0
BBX 4 8 0 -1
BITMAP
90
90
60
60
60
60
90
90
ENDCHAR
STARTCHAR BOX DRAWINGS LIGHT LEFT
ENCODING 9588
SWIDTH 480 0
DWIDTH 4 0
BBX 4 8 0 -1
BITMAP
00
00
00
00
C0
00
00
00
ENDCHAR
STARTCHAR BOX DRAWINGS LIGHT UP
ENCODING 9589
SWIDTH 480 0
DWIDTH 4 0
BBX 4 8 0 -1
BITMAP
40
40
40
40
00
00
00
00
ENDCHAR
STARTCHAR BOX DRAWINGS LIGHT RIGHT
ENCODING 9590
SWIDTH 480 0
DWIDTH 4 0
BBX 4 8 0 -1
BITMAP
00
00
00
00
30
00
00
00
ENDCHAR
STARTCHAR BOX DRAWINGS LIGHT DOWN
ENCODING 9591
SWIDTH 480 0
DWIDTH 4 0
BBX 4 8 0 -1
BITMAP
00
00
00
00
40
40
40
40
ENDCHAR
STARTCHAR BOX DRAWINGS HEAVY LEFT
ENCODING 9592
SWIDTH 480 0
DWIDTH 4 0
BBX 4 8 0 -1
BITMAP
00
00
00
C0
C0
00
00
00
ENDCHAR
STARTCHAR BOX DRAWINGS HEAVY UP
ENCODING 9593
SWIDTH 480 0
DWIDTH 4 0
BBX 4 8 0 -1
BITMAP
60
60
60
60
00
00
00
00
ENDCHAR
STARTCHAR BOX DRAWINGS HEAVY RIGHT
ENCODING 9594
SWIDTH 480 0
DWIDTH 4 0
BBX 4 8 0 -1
BITMAP
00
00
00
30
30
00
00
00
ENDCHAR
STARTCHAR BOX DRAWINGS HEAVY DOWN
ENCODING 9595
SWIDTH 480 0
DWIDTH 4 0
BBX 4 8 0 -1
BITMAP
00
00
00
00
60
60
60
60
ENDCHAR
STARTCHAR BOX DRAWINGS LIGHT LEFT AND HEAVY RIGHT
ENCODING 9596
SWIDTH 480 0
DWIDTH 4 0
BBX 4 8 0 -1
BITMAP
00
00
00
30
F0
00
00
00
ENDCHAR
STARTCHAR BOX DRAWINGS LIGHT UP AND HEAVY DOWN
ENCODING 9597
SWIDTH 480 0
DWIDTH 4 0
BBX 4 8 0 -1
BITMAP
40
40
40
40
60
60
60
60
ENDCHAR
STARTCHAR BOX DRAWINGS HEAVY LEFT AND LIGHT RIGHT
ENCODING 9598
SWIDTH 480 0
DWIDTH 4 0
BBX 4 8 0 -1
BITMAP
00
00
00
C0
F0
00
00
00
ENDCHAR
STARTCHAR BOX DRAWINGS HEAVY UP AND LIGHT DOWN
ENCODING 9599
SWIDTH 480 0
DWIDTH 4 0
BBX 4 8 0 -1
BITMAP
60
60
60
60
40
40
40
40
ENDCHAR
STARTCHAR UPPER HALF BLOCK
ENCODING 9600
SWIDTH 480 0
DWIDTH 4 0
BBX 4 8 0 -1
BITMAP
F0
F0
F0
F0
00
00
00
00
ENDCHAR
STARTCHAR LOWER ONE EIGHTH BLOCK
ENCODING 9601
SWIDTH 480 0
DWIDTH 4 0
BBX 4 8 0 -1
BITMAP
00
00
00
00
00
00
00
F0
ENDCHAR
STARTCHAR LOWER ONE QUARTER BLOCK
ENCODING 9602
SWIDTH 480 0
DWIDTH 4 0
BBX 4 8 0 -1
BITMAP
00
00
00
00
00
00
F0
F0
ENDCHAR
STARTCHAR LOWER THREE EIGHTHS BLOCK
ENCODING 9603
SWIDTH 480 0
DWIDTH 4 0
BBX 4 8 0 -1
BITMAP
00
00
00
00
00
F0
F0
F0
ENDCHAR
STARTCHAR LOWER HALF BLOCK
ENCODING 9604
SWIDTH 480 0
DWIDTH 4 0
BBX 4 8 0 -1
BITMAP
00
00
00
00
F0
F0
F0
F0
ENDCHAR
STARTCHAR LOWER FIVE EIGHTHS BLOCK
ENCODING 9605
SWIDTH 480 0
DWIDTH 4 0
BBX 4 8 0 -1
BITMAP
00
00
00
F0
F0
F0
F0
F0
ENDCHAR
STARTCHAR LOWER THREE QUARTERS BLOCK
ENCODING 9606
SWIDTH 480 0
DWIDTH 4 0
BBX 4 8 0 -1
BITMAP
00
00
F0
F0
F0
F0
F0
F0
ENDCHAR
STARTCHAR LOWER SEVEN EIGHTHS BLOCK
ENCODING 9607
SWIDTH 480 0
DWIDTH 4 0
BBX 4 8 0 -1
BITMAP
00
F0
F0
F0
F0
F0
F0
F0
ENDCHAR
STARTCHAR FULL BLOCK
ENCODING 9608
SWIDTH 480 0
DWIDTH 4 0
BBX 4 8 0 -1
BITMAP
F0
F0
F0
F0
F0
F0
F0
F0
ENDCHAR
STARTCHAR LEFT SEVEN EIGHTHS BLOCK
ENCODING 9609
SWIDTH 480 0
DWIDTH 4 0
BBX 4 8 0 -1
BITMAP
F0
F0
F0
F0
F0
F0
F0
F0
ENDCHAR
STARTCHAR LEFT THREE QUARTERS BLOCK
ENCODING 9610
SWIDTH 480 0
DWIDTH 4 0
BBX 4 8 0 -1
BITMAP
E0
E0
E0
E0
E0
E0
E0
E0
ENDCHAR
STARTCHAR LEFT FIVE EIGHTHS BLOCK
ENCODING 9611
SWIDTH 480 0
DWIDTH 4 0
BBX 4 8 0 -1
BITMAP
E0
E0
E0
E0
E0
E0
E0
E0
ENDCHAR
STARTCHAR LEFT HALF BLOCK
ENCODING 9612
SWIDTH 480 0
DWIDTH 4 0
BBX 4 8 0 -1
BITMAP
C0
C0
C0
C0
C0
C0
C0
C0
ENDCHAR
STARTCHAR LEFT THREE EIGHTHS BLOCK
ENCODING 9613
SWIDTH 480 0
DWIDTH 4 0
BBX 4 8 0 -1
BITMAP
C0
C0
C0
C0
C0
C0
C0
C0
ENDCHAR
STARTCHAR LEFT ONE QUARTER BLOCK
ENCODING 9614
SWIDTH 480 0
DWIDTH 4 0
BBX 4 8 0 -1
BITMAP
80
80
80
80
80
80
80
80
ENDCHAR
STARTCHAR LEFT ONE EIGHTH BLOCK
ENCODING 9615
SWIDTH 480 0
DWIDTH 4 0
BBX 4 8 0 -1
BITMAP
80
80
80
80
80
80
80
80
ENDCHAR
STARTCHAR RIGHT HALF BLOCK
ENCODING 9616
SWIDTH 480 0
DWIDTH 4 0
BBX 4 8 0 -1
BITMAP
30
30
30
30
30
30
30
30
ENDCHAR
STARTCHAR LIGHT SHADE
ENCODING 9617
SWIDTH 480 0
DWIDTH 4 0
BBX 4 8 0 -1
BITMAP
80
20
80
20
80
20
80
20
ENDCHAR
STARTCHAR MEDIUM SHADE
ENCODING 9618
SWIDTH 480 0
DWIDTH 4 0
BBX 4 8 0 -1
BITMAP
A0
50
A0
50
A0
50
A0
50
ENDCHAR
STARTCHAR DARK SHADE
ENCODING 9619
SWIDTH 480 0
DWIDTH 4 0
BBX 4 8 0 -1
BITMAP
B0
E0
B0
E0
B0
E0
B0
E0
ENDCHAR
STARTCHAR UPPER ONE EIGHTH BLOCK
ENCODING 9620
SWIDTH 480 0
DWIDTH 4 0
BBX 4 8 0 -1
BITMAP
F0
00
00
00
00
00
00
00
ENDCHAR
STARTCHAR RIGHT ONE EIGHTH BLOCK
ENCODING 9621
SWIDTH 480 0
DWIDTH 4 0
BBX 4 8 0 -1
BITMAP
10
10
10
10
10
10
10
10
ENDCHAR
STARTCHAR QUADRANT LOWER LEFT
ENCODING 9622
SWIDTH 480 0
DWIDTH 4 0
BBX 4 8 0 -1
BITMAP
00
00
00
00
C0
C0
C0
C0
ENDCHAR
STARTCHAR QUADRANT LOWER RIGHT
ENCODING 9623
SWIDTH 480 0
DWIDTH 4 0
BBX 4 8 0 -1
BITMAP
00
00
00
00
30
30
30
30
ENDCHAR
STARTCHAR QUADRANT UPPER LEFT
ENCODING 9624
SWIDTH 480 0
DWIDTH 4 0
BBX 4 8 0 -1
BITMAP
C0
C0
C0
C0
00
00
00
00
ENDCHAR
STARTCHAR QUADRANT UPPER LEFT AND LOWER LEFT AND LOWER RIGHT
ENCODING 9625
SWIDTH 480 0
DWIDTH 4 0
BBX 4 8 0 -1
BITMAP
C0
C0
C0
C0
F0
F0
F0
F0
ENDCHAR
STARTCHAR QUADRANT UPPER LEFT AND LOWER RIGHT
ENCODING 9626
SWIDTH 480 0
DWIDTH 4 0
BBX 4 8 0 -1
BITMAP
C0
C0
C0
C0
30
30
30
30
ENDCHAR
STARTCHAR QUADRANT UPPER LEFT AND UPPER RIGHT AND LOWER LEFT
ENCODING 9627
SWIDTH 480 0
DWIDTH 4 0
BBX 4 8 0 -1
BITMAP
F0
F0
F0
F0
C0
C0
C0
C0
ENDCHAR
STARTCHAR QUADRANT UPPER LEFT AND UPPER RIGHT AND LOWER RIGHT
ENCODING 9628
SWIDTH 480 0
DWIDTH 4 0
BBX 4 8 0 -1
BITMAP
F0
F0
F0
F0
30
30
30
30
ENDCHAR
STARTCHAR QUADRANT UPPER RIGHT
ENCODING 9629
SWIDTH 480 0
DWIDTH 4 0
BBX 4 8 0 -1
BITMAP
30
30
30
30
00
00
00
00
ENDCHAR
STARTCHAR QUADRANT UPPER RIGHT AND LOWER LEFT
ENCODING 9630
SWIDTH 480 0
DWIDTH 4 0
BBX 4 8 0 -1
BITMAP
30
30
30
30
C0
C0
C0
C0
ENDCHAR
STARTCHAR QUADRANT UPPER RIGHT AND LOWER LEFT AND LOWER RIGHT
ENCODING 9631
SWIDTH 480 0
DWIDTH 4 0
BBX 4 8 0 -1
BITMAP
30
30
30
30
F0
F0
F0
F0
ENDCHAR
STARTCHAR BLACK SQUARE
ENCODING 9632
SWIDTH 480 0
DWIDTH 4 0
BBX 4 8 0 -1
BITMAP
00
00
00
E0
E0
E0
00
00
ENDCHAR
STARTCHAR WHITE SQUARE
ENCODING 9633
SWIDTH 480 0
DWIDTH 4 0
BBX 4 8 0 -1
BITMAP
00
00
00
E0
A0
E0
00
00
ENDCHAR
STARTCHAR BLACK UP-POINTING TRIANGLE
ENCODING 9650
SWIDTH 480 0
DWIDTH 4 0
BBX 4 8 0 -1
BITMAP
00
40
40
E0
E0
E0
00
00
ENDCHAR
STARTCHAR WHITE UP-POINTING TRIANGLE
ENCODING 9651
SWIDTH 480 0
DWIDTH 4 0
BBX 4 8 0 -1
BITMAP
00
40
40
A0
A0
E0
00
00
ENDCHAR
STARTCHAR BLACK UP-POINTING SMALL TRIANGLE
ENCODING 9652
SWIDTH 480 0
DWIDTH 4 0
BBX 4 8 0 -1
BITMAP
00
00
40
40
E0
E0
00
00
ENDCHAR
STARTCHAR WHITE UP-POINTING SMALL TRIANGLE
ENCODING 9653
SWIDTH 480 0
DWIDTH 4 0
BBX 4 8 0 -1
BITMAP
00
00
40
40
A0
E0
00
00
ENDCHAR
STARTCHAR BLACK RIGHT-POINTING TRIANGLE
ENCODING 9654
SWIDTH 480 0
DWIDTH 4 0
BBX 4 8 0 -1
BITMAP
00
00
80
C0
E0
C0
80
00
ENDCHAR
STARTCHAR WHITE RIGHT-POINTING TRIANGLE
ENCODING 9655
SWIDTH 480 0
DWIDTH 4 0
BBX 4 8 0 -1
BITMAP
00
00
80
C0
A0
C0
80
00
ENDCHAR
STARTCHAR BLACK RIGHT-POINTING SMALL TRIANGLE
ENCODING 9656
SWIDTH 480 0
DWIDTH 4 0
BBX 4 8 0 -1
BITMAP
00
00
00
80
E0
80
00
00
ENDCHAR
STARTCHAR WHITE RIGHT-POINTING SMALL TRIANGLE
ENCODING 9657
SWIDTH 480 0
DWIDTH 4 0
BBX 4 8 0 -1
BITMAP
00
00
00
80
E0
80
00
00
ENDCHAR
STARTCHAR BLACK RIGHT-POINTING POINTER
ENCODING 9658
SWIDTH 480 0
DWIDTH 4 0
BBX 4 8 0 -1
BITMAP
00
00
00
80
E0
80
00
00
ENDCHAR
STARTCHAR WHITE RIGHT-POINTING POINTER
ENCODING 9659
SWIDTH 480 0
DWIDTH 4 0
BBX 4 8 0 -1
BITMAP
00
00
00
80
E0
80
00
00
ENDCHAR
STARTCHAR BLACK DOWN-POINTING TRIANGLE
ENCODING 9660
SWIDTH 480 0
DWIDTH 4 0
BBX 4 8 0 -1
BITMAP
00
E0
E0
E0
40
40
00
00
ENDCHAR
STARTCHAR WHITE DOWN-POINTING TRIANGLE
ENCODING 9661
SWIDTH 480 0
DWIDTH 4 0
BBX 4 8 0 -1
BITMAP
00
E0
A0
A0
40
40
00
00
ENDCHAR
STARTCHAR BLACK DOWN-POINTING SMALL TRIANGLE
ENCODING 9662
SWIDTH 480 0
DWIDTH 4 0
BBX 4 8 0 -1
BITMAP
00
00
E0
E0
40
40
00
00
ENDCHAR
STARTCHAR WHITE DOWN-POINTING SMALL TRIANGLE
ENCODING 9663
SWIDTH 480 0
DWIDTH 4 0
BBX 4 8 0 -1
BITMAP
00
00
E0
A0
40
40
00
00
ENDCHAR
STARTCHAR BLACK LEFT-POINTING TRIANGLE
ENCODING 9664
SWIDTH 480 0
DWIDTH 4 0
BBX 4 8 0 -1
BITMAP
00
00
20
60
E0
60
20
00
ENDCHAR
STARTCHAR WHITE LEFT-POINTING TRIANGLE
ENCODING 9665
SWIDTH 480 0
DWIDTH 4 0
BBX 4 8 0 -1
BITMAP
00
00
20
60
A0
60
20
00
ENDCHAR
STARTCHAR BLACK LEFT-POINTING SMALL TRIANGLE
ENCODING 9666
SWIDTH 480 0
DWIDTH 4 0
BBX 4 8 0 -1
BITMAP
00
00
00
20
E0
20
00
00
ENDCHAR
STARTCHAR WHITE LEFT-POINTING SMALL TRIANGLE
ENCODING 9667
SWIDTH 480 0
DWIDTH 4 0
BBX 4 8 0 -1
BITMAP
00
00
00
20
E0
20
00
00
ENDCHAR
STARTCHAR BLACK LEFT-POINTING POINTER
ENCODING 9668
SWIDTH 480 0
DWIDTH 4 0
BBX 4 8 0 -1
BITMAP
00
00
00
20
E0
20
00
00
ENDCHAR
STARTCHAR WHITE LEFT-POINTING POINTER
ENCODING 9669
SWIDTH 480 0
DWIDTH 4 0
BBX 4 8 0 -1
BITMAP
00
00
00
20
E0
20
00
00
ENDCHAR
STARTCHAR BLACK DIAMOND
ENCODING 9670
SWIDTH 480 0
DWIDTH 4 0
BBX 4 8 0 -1
BITMAP
00
00
40
E0
E0
40
00
00
ENDCHAR
STARTCHAR WHITE DIAMOND
ENCODING 9671
SWIDTH 480 0
DWIDTH 4 0
BBX 4 8 0 -1
BITMAP
00
00
40
A0
A0
40
00
00
ENDCHAR
STARTCHAR WHITE DIAMOND CONTAINING BLACK SMALL DIAMOND
ENCODING 9672
SWIDTH 480 0
DWIDTH 4 0
BBX 4 8 0 -1
BITMAP
00
00
40
E0
E0
40
00
00
ENDCHAR
ENDFONT
